<svg xmlns="http://www.w3.org/2000/svg" xmlns:xlink="http://www.w3.org/1999/xlink" id="Layer_1" viewBox="-146 -462 419.8 419.8" width="419.8" height="419.8"><style id="style108">.st0{fill:#ff8c18}.st1{fill:#615f5c}.st1,.st2,.st3{display:none}.st2{stroke:#333;stroke-width:.7;fill:none}.st3{fill:#ff8c16}.st4{clip-path:url(#SVGID_2_);fill:#ff8c18}</style><g id="g159"><g id="g157"><defs id="defs150"><path id="SVGID_1_" d="M-146-462h419.8v419.8H-146z"/></defs><clipPath id="SVGID_2_"><use xlink:href="#SVGID_1_" id="use152" width="100%" height="100%" overflow="visible"/></clipPath><path class="st4" d="M-146-462.2h420v420h-420zm248.3 314.5c-11.9 4.4-24.8 6.8-38.3 6.8-13.5 0-26.4-2.4-38.3-6.8L64-70.1zm-139.2-57.7l-27.8 82 82-27.8c-23.9-11.1-43.2-30.4-54.2-54.2zm201.8 0c-11.1 23.9-30.3 43.1-54.2 54.2l82 27.8zM64-336.1c-48.7 0-88.1 37.6-88.1 83.9 0 46.3 39.4 83.9 88.1 83.9 48.6 0 88.1-37.6 88.1-83.9 0-46.3-39.5-83.9-88.1-83.9zm-104.5 45.6l-77.6 38.3 77.6 38.3c-4.4-11.9-6.8-24.8-6.8-38.3 0-13.4 2.4-26.3 6.8-38.3zm209 0c4.4 11.9 6.8 24.8 6.8 38.3 0 13.5-2.4 26.4-6.8 38.3l77.6-38.3zM-64.8-381l27.8 82c11.1-23.8 30.3-43.1 54.2-54.2zm257.6 0l-82 27.8c23.9 11.1 43.1 30.3 54.2 54.2zM64-434.3l-38.3 77.6c11.9-4.4 24.8-6.8 38.3-6.8 13.5 0 26.4 2.4 38.3 6.8zm0 0" clip-path="url(#SVGID_2_)" id="path155" fill="#ff8c18"/></g></g><path d="M-1.58 209.758L-.853-1.168l210.926-.728L421-2.625v423.309H-2.309zm229.054 143.458l16.733-33.379h-33.754c-18.565 0-33.755.306-33.756.68-.004 1.405 32.585 66.078 33.298 66.078.41 0 8.275-15.02 17.479-33.379zm-75.9-46.146a7028.154 7028.154 0 0 1-15.389-11.893c-5.405-4.189-13.723-13.496-18.484-20.683l-8.655-13.068-11.628 34.891c-6.395 19.19-11.627 35.736-11.627 36.769 0 1.032 16.052-3.436 35.672-9.931 33.261-11.01 35.296-12.098 30.111-16.085zm182.88 23.42c-1.062-2.734-6.52-18.394-12.13-34.8-5.61-16.405-10.726-30.456-11.37-31.224-.643-.768-2.554 1.078-4.247 4.102-5.041 9.009-25.247 29.845-33.896 34.954-4.429 2.616-8.053 5.653-8.053 6.748 0 1.738 62.728 24.372 69.193 24.967 1.339.123 1.565-2.013.503-4.747zm-85.02-48.938c20.273-9.98 30.24-20.446 40.283-42.294 5.888-12.809 6.79-18.253 5.656-34.111-.742-10.379-3.533-23.091-6.2-28.25-33.102-64.011-125.846-64.693-157.047-1.155-6.457 13.15-7.92 19.794-7.647 34.726.41 22.363 5.967 35.951 21.668 52.985 27.55 29.888 65.744 36.58 103.287 18.099zM98.89 227.512a104.566 104.566 0 0 1 0-34.088c1.55-9.375 2.113-16.979 1.251-16.898-.862.08-16.247 7.59-34.188 16.69l-32.62 16.543 34.04 17.252c18.723 9.488 34.107 17.318 34.189 17.399.08.08-1.121-7.523-2.672-16.897zm256.724-34.296c-17.942-9.099-33.26-16.609-34.041-16.688-.782-.08-1.42 15.044-1.42 33.609v33.754l34.04-17.066 34.042-17.065zM134.44 126.385c5.272-4.842 12.746-10.914 16.61-13.494 3.862-2.58 6.253-4.69 5.311-4.69-.941 0-17.777-5.699-37.412-12.664l-35.7-12.665 11.004 31.84c6.052 17.511 11.875 34.078 12.939 36.815 1.63 4.193 3.172 3.299 9.8-5.682 4.324-5.861 12.176-14.618 17.448-19.46zM334.148 85.89c-.47-.552-16.904 4.344-36.521 10.881l-35.667 11.886 13.472 9.222c7.41 5.072 18.543 15.964 24.739 24.205l11.266 14.984 11.782-35.087c6.48-19.297 11.398-35.538 10.929-36.09zm-108.03 12.725l18.206 2.72-17.124-34.16-17.124-34.16-16.544 32.622c-9.099 17.942-16.61 33.362-16.69 34.268-.081.906 6.877.374 15.46-1.182 10.141-1.838 21.986-1.876 33.815-.108z" id="path34" transform="translate(-146 -462)" fill="#8ce1e1" stroke-width="2.841" fill-opacity="0"/><path d="M-1.136 209.03V-2.625l210.926.729 210.926.728.728 210.926.729 210.926H-1.136zm244.158 112.228c.08-.782-14.539-1.42-32.488-1.42-38.209 0-36.743-3.9-14.925 39.718l14.183 28.356 16.542-32.617c9.098-17.94 16.607-33.256 16.688-34.037zm-116.548.565l32.445-10.863-10.084-6.233c-10.471-6.472-30.325-26.592-35.678-36.159-1.693-3.024-3.634-4.87-4.313-4.102-.68.768-6.455 17.12-12.834 36.336-9.589 28.886-10.765 34.674-6.79 33.412 2.645-.84 19.41-6.416 37.254-12.391zm196.302-24.512l-11.886-35.667-9.221 13.472c-5.072 7.41-15.964 18.543-24.205 24.739L262.48 311.12l35.086 11.782c19.298 6.48 35.539 11.398 36.092 10.929.552-.47-4.344-16.904-10.882-36.521zm-76.6-13.325c30.967-13.322 54.012-51.124 49.844-81.761-9.9-72.751-102.782-99.867-151.705-44.288-40.278 45.758-19.013 110.749 42.851 130.962 15.498 5.064 40.694 2.966 59.01-4.913zM99.71 210.47c0-18.748-.64-34.023-1.42-33.943-.782.08-16.1 7.589-34.041 16.688l-32.62 16.543 34.04 17.252c18.722 9.488 34.04 17.318 34.04 17.4zm285.399-.06c.088-1.353-63.762-34.032-66.494-34.032-.655 0-.002 4.146 1.451 9.214 3.258 11.358 3.311 34.2.112 47.962l-2.395 10.304 33.614-15.985c18.488-8.792 33.659-16.65 33.712-17.463zm-265.295-67.566c4.808-7.336 15.4-18.011 23.537-23.722l14.795-10.385-34.904-11.631c-19.197-6.398-35.749-11.632-36.781-11.632-1.033 0 3.412 15.98 9.877 35.51 6.465 19.53 12.425 35.44 13.245 35.354.82-.085 5.423-6.157 10.231-13.494zm205.114-25.269L336.4 82.92l-13.236 5.142c-7.28 2.827-23.815 8.631-36.744 12.897l-23.508 7.756 10.812 7.832c12.266 8.886 34.783 33.533 34.783 38.074 0 8.015 5.958-5.423 16.423-37.045zM201.943 97.827c9.393-.83 22.512-.251 29.152 1.289 6.64 1.54 12.074 2.488 12.074 2.107 0-.381-7.375-16.224-16.389-35.205l-16.388-34.512-17.87 35.876c-13.164 26.427-16.525 35.36-12.764 33.916 2.808-1.078 12.791-2.64 22.185-3.47z" id="path4530" transform="translate(-146 -462)" fill="#333" stroke-width="2.841"/></svg>